#!OML:ASF H:\GeneralSubjects\Female5\Project 1\Capture day 1\Session 1\Female5.ASF
:FULLY-SPECIFIED
:DEGREES
491
root -3.96378 15.967 -2.64348 177.062 -73.737 194.165
lowerback 11.4397 1.61917 5.14963
upperback -9.24194 3.49705 4.40565
thorax -17.0018 1.20911 1.30429
lowerneck -12.5948 0.47357 -4.48149
upperneck 34.8157 5.14203 -15.3369
head 14.6499 -1.22549 -5.00206
rclavicle -3.61788e-014 3.02153e-014
rhumerus -44.21 22.728 -73.7692
rradius 32.7684
rwrist -17.1527
rhand -19.3206 -13.8623
rfingers 7.12502
rthumb 6.99565 -43.7267
lclavicle -3.61788e-014 3.02153e-014
lhumerus -59.7574 12.4221 51.181
lradius 34.6916
lwrist -0.552756
lhand -30.6349 30.2611
lfingers 7.12502
lthumb -3.93058 60.2046
rfemur 4.69608 19.8209 34.2141
rtibia -0.367556
rfoot -26.8157 -25.1126
rtoes -21.8645
lfemur -40.5416 0.81181 -24.6917
ltibia 51.0447
lfoot -11.5624 5.67977
ltoes -70.4831
492
root -4.17007 15.9306 -2.6869 175.181 -74.0088 195.928
lowerback 11.4351 1.572 5.41087
upperback -9.21057 3.49185 4.52937
thorax -16.9571 1.18506 1.30219
lowerneck -12.9443 0.461239 -4.30021
upperneck 34.7699 5.18661 -15.4721
head 14.7244 -1.20069 -5.08988
rclavicle 3.51849e-014 -3.65764e-014
rhumerus -43.4859 23.49 -74.1864
rradius 33.4846
rwrist -17.0761
rhand -19.2201 -14.8693
rfingers 7.12502
rthumb 7.09265 -44.7305
lclavicle 3.51849e-014 -3.65764e-014
lhumerus -60.0124 12.6017 52.2554
lradius 34.3335
lwrist -0.89601
lhand -30.6455 29.6672
lfingers 7.12502
lthumb -3.94085 59.6105
rfemur 6.51045 20.8589 35.4584
rtibia -1.22018
rfoot -26.9102 -26.7596
rtoes -23.2062
lfemur -41.8658 1.2123 -23.643
ltibia 48.6593
lfoot -12.7249 7.36643
ltoes -69.8358
493
root -4.3783 15.8961 -2.72567 172.239 -74.1556 198.82
lowerback 11.4432 1.50649 5.91525
upperback -9.12859 3.51433 4.75789
thorax -16.8545 1.15302 1.27712
lowerneck -13.334 0.46872 -4.09194
upperneck 34.5106 5.26164 -15.6504
head 14.7126 -1.14735 -5.17425
rclavicle -2.13694e-014 -1.01778e-013
rhumerus -42.7741 24.6813 -74.8145
rradius 34.258
rwrist -17.6241
rhand -19.2957 -15.7315
rfingers 7.12502
rthumb 7.01973 -45.5951
lclavicle -2.13694e-014 -1.01778e-013
lhumerus -60.1376 13.0818 53.1395
lradius 33.9037
lwrist -1.38165
lhand -29.9413 30.2793
lfingers 7.12502
lthumb -3.26078 60.2342
rfemur 8.33701 22.1543 37.1496
rtibia -2.0437
rfoot -27.1911 -28.5309
rtoes -24.008
lfemur -42.9426 1.41717 -22.0349
ltibia 45.4371
lfoot -14.2233 9.4155
ltoes -69.1993
494
root -4.58849 15.8613 -2.76019 169.757 -74.1693 201.286
lowerback 11.565 1.48856 6.27531
upperback -9.08945 3.58608 4.95149
thorax -16.8847 1.15506 1.28017
lowerneck -13.5967 0.430152 -4.12664
upperneck 34.0417 5.20201 -15.4765
head 14.536 -1.11063 -5.05192
rclavicle 1.27222e-014 1.59028e-015
rhumerus -42.1775 25.7612 -75.3879
rradius 34.8133
rwrist -18.2737
rhand -18.4697 -15.4366
rfingers 7.12502
rthumb 7.81701 -45.2721
lclavicle 1.27222e-014 1.59028e-015
lhumerus -60.258 13.5448 53.9503
lradius 33.453
lwrist -1.7374
lhand -30.1626 30.4381
lfingers 7.12502
lthumb -3.4745 60.3895
rfemur 10.4141 24.3477 39.0452
rtibia -2.99531
rfoot -27.588 -30.9384
rtoes -23.6522
lfemur -43.6202 1.26398 -20.2184
ltibia 41.3407
lfoot -15.6298 10.8383
ltoes -68.6001
495
root -4.80532 15.8226 -2.7904 167.726 -74.1668 203.285
lowerback 11.7244 1.52787 6.59436
upperback -9.09033 3.72339 5.01039
thorax -16.9782 1.18054 1.1347
lowerneck -13.7291 0.336782 -4.1382
upperneck 33.5378 4.99707 -15.1618
head 14.293 -1.10335 -4.88894
rclavicle 5.56597e-015 -6.36111e-015
rhumerus -41.6372 26.1651 -75.7624
rradius 35.1307
rwrist -18.2794
rhand -17.7203 -13.6545
rfingers 7.12502
rthumb 8.54025 -43.4618
lclavicle 5.56597e-015 -6.36111e-015
lhumerus -60.2335 13.8694 54.6192
lradius 33.0277
lwrist -2.14655
lhand -30.834 30.099
lfingers 7.12502
lthumb -4.12284 60.0388
rfemur 12.9877 27.4444 41.3331
rtibia -4.11165
rfoot -28.0528 -34.3807
rtoes -22.9841
lfemur -43.7924 0.517159 -18.1662
ltibia 36.4582
lfoot -13.9383 12.6733
ltoes -69.3186
496
root -5.02949 15.7795 -2.81691 165.244 -74.1034 205.781
lowerback 11.8994 1.56859 7.01105
upperback -9.13438 3.88856 5.10521
thorax -17.134 1.20543 0.971746
lowerneck -13.9071 0.259121 -4.09649
upperneck 33.1564 4.83507 -14.9271
head 14.1302 -1.09572 -4.78128
rclavicle 2.48481e-014 -1.90833e-014
rhumerus -41.1882 26.7017 -76.256
rradius 35.574
rwrist -18.1538
rhand -17.991 -11.6813
rfingers 7.12502
rthumb 8.27897 -41.4991
lclavicle 2.48481e-014 -1.90833e-014
lhumerus -60.2103 14.2859 55.0724
lradius 32.6497
lwrist -2.87402
lhand -30.8417 29.7904
lfingers 7.12502
lthumb -4.13027 59.7301
rfemur 15.6547 30.2694 43.938
rtibia -5.12278
rfoot -28.3043 -37.9254
rtoes -23.482
lfemur -43.7827 -0.736149 -15.6317
ltibia 31.4787
lfoot -13.236 14.646
ltoes -69.8312
497
root -5.26266 15.7335 -2.84225 162.343 -73.8854 208.796
lowerback 12.0568 1.61603 7.52586
upperback -9.20303 4.08742 5.26809
thorax -17.3095 1.23508 0.827174
lowerneck -14.1265 0.178909 -4.11055
upperneck 32.7855 4.67062 -14.6265
head 13.9807 -1.08976 -4.64019
rclavicle -2.127e-014 1.74931e-014
rhumerus -40.8993 27.8806 -77.1224
rradius 36.5077
rwrist -18.6006
rhand -18.6614 -12.4572
rfingers 7.12502
rthumb 7.63201 -42.2995
lclavicle -2.127e-014 1.74931e-014
lhumerus -60.1066 14.4906 55.6242
lradius 32.2865
lwrist -3.57045
lhand -30.4364 29.9079
lfingers 7.12502
lthumb -3.73892 59.8548
rfemur 18.2072 32.7746 46.7576
rtibia -5.85685
rfoot -28.5927 -41.0583
rtoes -24.2653
lfemur -43.9167 -2.21769 -12.6595
ltibia 27.2237
lfoot -13.4366 16.9895
ltoes -70.1243
498
root -5.50646 15.6803 -2.86728 159.606 -73.6047 211.737
lowerback 12.088 1.69326 8.0896
upperback -9.29406 4.31552 5.36875
thorax -17.418 1.2672 0.579689
lowerneck -14.1941 0.081919 -3.96897
upperneck 32.3343 4.42532 -14.3658
head 13.7581 -1.09317 -4.5471
rclavicle -8.94531e-016 6.99722e-014
rhumerus -40.6222 28.6319 -77.8518
rradius 37.1182
rwrist -19.0882
rhand -18.8795 -11.9372
rfingers 7.12502
rthumb 7.42146 -41.7871
lclavicle -8.94531e-016 6.99722e-014
lhumerus -59.8001 14.273 56.3282
lradius 32.0278
lwrist -4.08302
lhand -30.1132 29.9599
lfingers 7.12502
lthumb -3.42674 59.9121
rfemur 20.0989 33.9705 48.9764
rtibia -6.20912
rfoot -28.1255 -42.804
rtoes -25.7934
lfemur -44.3444 -3.98058 -9.38841
ltibia 23.9593
lfoot -17.0952 17.6138
ltoes -68.1313
499
root -5.75824 15.6219 -2.88647 156.983 -73.3073 214.702
lowerback 11.9667 1.78032 8.70202
upperback -9.42777 4.54466 5.46126
thorax -17.4737 1.29177 0.302655
lowerneck -14.2951 0.0103478 -3.73375
upperneck 31.9921 4.21369 -14.1426
head 13.5994 -1.08657 -4.49412
rclavicle 0 -3.81667e-014
rhumerus -40.3901 28.9972 -78.4178
rradius 37.8815
rwrist -19.2034
rhand -18.7417 -12.3458
rfingers 7.12502
rthumb 7.5545 -42.1909
lclavicle 0 -3.81667e-014
lhumerus -59.4773 13.8449 57.0914
lradius 32.0144
lwrist -4.4272
lhand -30.11 30.0716
lfingers 7.12502
lthumb -3.42372 60.0238
rfemur 21.1814 33.9799 50.4449
rtibia -6.2863
rfoot -27.5178 -43.2808
rtoes -27.7154
lfemur -45.4289 -4.65598 -7.09448
ltibia 22.9956
lfoot -16.5286 19.0699
ltoes -68.4414
500
root -6.01817 15.5637 -2.89692 154.181 -72.9948 217.894
lowerback 11.7914 1.82981 9.35633
upperback -9.53849 4.72318 5.60928
thorax -17.4688 1.2939 0.0831676
lowerneck -14.5855 -0.0336418 -3.6679
upperneck 31.7801 4.07668 -13.7645
head 13.5421 -1.06309 -4.3524
rclavicle -1.98785e-015 -1.74931e-014
rhumerus -40.0473 29.4692 -78.9091
rradius 38.5641
rwrist -19.3791
rhand -18.7137 -12.3645
rfingers 7.12502
rthumb 7.58149 -42.2086
lclavicle -1.98785e-015 -1.74931e-014
lhumerus -59.1283 13.2566 58.0149
lradius 32.2177
lwrist -4.36968
lhand -29.8286 30.9899
lfingers 7.12502
lthumb -3.15194 60.9463
rfemur 21.8139 33.4996 51.5769
rtibia -6.10974
rfoot -27.5686 -43.1233
rtoes -29.0914
lfemur -46.7744 -4.70025 -5.41444
ltibia 23.3748
lfoot -19.1793 20.3572
ltoes -68.338
